<svg xmlns="http://www.w3.org/2000/svg" viewBox="0 0 120 120" fill="none">
  <circle cx="60" cy="60" r="54" fill="#EEF5DE"/>
  <circle cx="50" cy="55" r="33" stroke="#0F1112" stroke-width="4"/>
  <circle cx="50" cy="55" r="11" stroke="#0F1112" stroke-width="4"/>
  <path d="M50 22v7M50 81v7M17 55h7M76 55h7" stroke="#0F1112" stroke-width="4" stroke-linecap="round"/>
  <path d="M29 33l4 4M67 33l-4 4M29 77l4-4M67 77l-4-4" stroke="#0F1112" stroke-width="4" stroke-linecap="round"/>
  <path d="M78 30l7 2c9 3 16 12 17 22l1 13c0 4-2 7-5 8l-6 3-10-12-3-12V35z" stroke="#0F1112" stroke-width="4" stroke-linejoin="round"/>
  <circle cx="82" cy="42" r="2.5" fill="#0F1112"/>
  <circle cx="87" cy="67" r="2.5" fill="#0F1112"/>
  <g fill="#0F1112">
    <circle cx="33" cy="36" r="2.2"/><circle cx="44" cy="30" r="2.2"/><circle cx="58" cy="34" r="2.2"/>
    <circle cx="28" cy="49" r="2.2"/><circle cx="39" cy="44" r="2.2"/><circle cx="56" cy="47" r="2.2"/>
    <circle cx="27" cy="63" r="2.2"/><circle cx="40" cy="58" r="2.2"/><circle cx="56" cy="61" r="2.2"/>
    <circle cx="32" cy="74" r="2.2"/><circle cx="46" cy="72" r="2.2"/><circle cx="59" cy="76" r="2.2"/>
  </g>
</svg>